<svg width="15" height="15" viewBox="0 0 15 15" fill="none" xmlns="http://www.w3.org/2000/svg">
<path d="M7.35294 14.1667C11.1104 14.1667 14.2059 11.2831 14.2059 7.66669C14.2059 4.05029 11.1104 1.16669 7.35294 1.16669C3.59548 1.16669 0.5 4.05029 0.5 7.66669C0.5 11.2831 3.59548 14.1667 7.35294 14.1667Z" stroke="#F25735"/>
<path d="M8.07357 9.66931H6.63357V3.83731H8.07357V9.66931ZM6.39357 11.4933C6.39357 11.2373 6.48557 11.0173 6.66957 10.8333C6.86157 10.6493 7.08957 10.5573 7.35357 10.5573C7.60957 10.5573 7.83357 10.6453 8.02557 10.8213C8.21757 10.9973 8.31357 11.2133 8.31357 11.4693C8.31357 11.7253 8.21757 11.9453 8.02557 12.1293C7.84157 12.3133 7.61757 12.4053 7.35357 12.4053C7.22557 12.4053 7.10157 12.3813 6.98157 12.3333C6.86957 12.2853 6.76957 12.2213 6.68157 12.1413C6.59357 12.0613 6.52157 11.9653 6.46557 11.8533C6.41757 11.7413 6.39357 11.6213 6.39357 11.4933Z" fill="#F25735"/>
</svg>
